# xmcd
#
# Track frame offsets:
#   150
#   138973
#   161931
#
# Disc length: 3961 seconds
#
# Revision: 0
# Processed by: cddbd v1.5.1PL2 Copyright (c) Steve Scherf et al.
# Submitted via: GXTranscoder 2.0.1939
#
DISCID=230f7703
DTITLE=diverse - Live Worship 96 vol. 2
DYEAR=1900
DGENRE=Gospel and Religious
TTITLE0=Part 1
TTITLE1=Part 2
TTITLE2=Part 3
EXTD=
EXTT0=
EXTT1=
EXTT2=
PLAYORDER=
